<svg xmlns="http://www.w3.org/2000/svg" xmlns:xlink="http://www.w3.org/1999/xlink" width="27" height="27" viewBox="0 0 27 27">
  <defs>
    <linearGradient id="linear-gradient" x1="0.748" y1="0.086" x2="0.202" y2="0.889" gradientUnits="objectBoundingBox">
      <stop offset="0" stop-color="#fd6b65"/>
      <stop offset="1" stop-color="#fc1a4e"/>
    </linearGradient>
  </defs>
  <path id="Sottrazione_20" data-name="Sottrazione 20" d="M13.5,27A13.5,13.5,0,0,1,3.954,3.954,13.5,13.5,0,1,1,23.046,23.046,13.412,13.412,0,0,1,13.5,27ZM8.065,12.521a1.123,1.123,0,0,0,0,2.246h8.816l-2.789,2.789a.958.958,0,0,0-.279.687,1.082,1.082,0,0,0,1.07,1.068.956.956,0,0,0,.684-.28L20.3,14.3a1.016,1.016,0,0,0,.087-1.422,1.135,1.135,0,0,0-.206-.281L15.665,8.074a1.138,1.138,0,0,0-1.609,1.609l2.838,2.838Z" fill="url(#linear-gradient)"/>
</svg>
