<svg xmlns="http://www.w3.org/2000/svg" width="61.342" height="39.076" viewBox="0 0 61.342 39.076">
  <g id="Raggruppa_22" data-name="Raggruppa 22" transform="translate(1.5 0.409)">
    <circle id="Ellisse_4" data-name="Ellisse 4" cx="3.88" cy="3.88" r="3.88" transform="translate(42.684 -0.409)" fill="#fff"/>
    <path id="Tracciato_7" data-name="Tracciato 7" d="M0,3.5S3.653,0,8.068,0s5.321,3.295,9.594,3.5A11.571,11.571,0,0,0,25.163.8" transform="translate(31.03 7.697) rotate(7)" fill="none" stroke="#fff" stroke-linecap="round" stroke-width="5"/>
    <rect id="Rettangolo_11" data-name="Rettangolo 11" width="6.837" height="13.669" transform="matrix(0.921, 0.391, -0.391, 0.921, 40.161, 10.317)" fill="#fff"/>
    <path id="Tracciato_8" data-name="Tracciato 8" d="M13.815-3.043S10.285,2.26,7.1,3.434s-7.1,0-7.1,0" transform="translate(24.686 23.136)" fill="none" stroke="#fff" stroke-linecap="round" stroke-width="5"/>
    <path id="Tracciato_9" data-name="Tracciato 9" d="M0,0A32.756,32.756,0,0,1,5,5.043a30.627,30.627,0,0,1,3.467,6.033" transform="translate(37.41 24.325)" fill="none" stroke="#fff" stroke-linecap="round" stroke-width="5"/>
    <path id="Tracciato_10" data-name="Tracciato 10" d="M0,0H17.75" transform="translate(2.115 7.77)" fill="none" stroke="#fff" stroke-linecap="round" stroke-width="3"/>
    <path id="Tracciato_11" data-name="Tracciato 11" d="M0,0H17.75" transform="translate(5.713 18.816)" fill="none" stroke="#fff" stroke-linecap="round" stroke-width="3"/>
    <line id="Linea_3" data-name="Linea 3" x2="17.75" transform="translate(0 29.863)" fill="none" stroke="#fff" stroke-linecap="round" stroke-width="3"/>
  </g>
</svg>
