<svg xmlns="http://www.w3.org/2000/svg" xmlns:xlink="http://www.w3.org/1999/xlink" width="24" height="29" viewBox="0 0 24 29">
  <defs>
    <linearGradient id="linear-gradient" x1="0.723" y1="0.097" x2="0.206" y2="0.887" gradientUnits="objectBoundingBox">
      <stop offset="0" stop-color="#f47878"/>
      <stop offset="1" stop-color="#ff2761"/>
    </linearGradient>
  </defs>
  <path id="Sottrazione_1" data-name="Sottrazione 1" d="M12,27a12.017,12.017,0,0,1-8.485-3.46,11.682,11.682,0,0,1,0-16.706,12.135,12.135,0,0,1,16.971,0,11.682,11.682,0,0,1,0,16.706A12.019,12.019,0,0,1,12,27ZM16.264,9.261a1.187,1.187,0,0,0-.838.342l-4.385,4.316a1.155,1.155,0,0,0,0,1.651,1.2,1.2,0,0,0,1.677,0L17.1,11.254a1.155,1.155,0,0,0,0-1.651A1.189,1.189,0,0,0,16.264,9.261ZM2.619,6.267a.86.86,0,0,1-.657-.3l-.551-.646A.836.836,0,0,1,1.517,4.13L2.831,3.046a.865.865,0,0,1,1.207.1l.552.646a.835.835,0,0,1-.106,1.189L3.17,6.07A.867.867,0,0,1,2.619,6.267ZM21.4,6.26a.853.853,0,0,1-.539-.188L19.525,5.01A.835.835,0,0,1,19.4,3.823l.54-.655a.858.858,0,0,1,.666-.313.867.867,0,0,1,.539.188L22.475,4.1A.835.835,0,0,1,22.6,5.292l-.539.655A.859.859,0,0,1,21.4,6.26ZM12.571,2.489H11.428a1,1,0,0,1-1-1V.531a1,1,0,0,1-1-1V-1a1,1,0,0,1,1-1h3.143a1,1,0,0,1,1,1v.531a1,1,0,0,1-1,1v.958A1,1,0,0,1,12.571,2.489Z" transform="translate(0 2)" fill="url(#linear-gradient)"/>
</svg>
