<svg xmlns="http://www.w3.org/2000/svg" xmlns:xlink="http://www.w3.org/1999/xlink" width="90" height="90" viewBox="0 0 90 90">
  <defs>
    <linearGradient id="linear-gradient" x1="0.836" y1="0.097" x2="0.201" y2="0.866" gradientUnits="objectBoundingBox">
      <stop offset="0" stop-color="#f66d75"/>
      <stop offset="1" stop-color="#fb4569"/>
    </linearGradient>
  </defs>
  <path id="Sottrazione_5" data-name="Sottrazione 5" d="M-453,90a44.719,44.719,0,0,1-17.516-3.536,44.849,44.849,0,0,1-14.3-9.644,44.85,44.85,0,0,1-9.644-14.3A44.719,44.719,0,0,1-498,45a44.719,44.719,0,0,1,3.536-17.516,44.85,44.85,0,0,1,9.644-14.3,44.849,44.849,0,0,1,14.3-9.644A44.719,44.719,0,0,1-453,0a44.718,44.718,0,0,1,17.516,3.536,44.85,44.85,0,0,1,14.3,9.644,44.85,44.85,0,0,1,9.644,14.3A44.717,44.717,0,0,1-408,45a44.717,44.717,0,0,1-3.536,17.516,44.85,44.85,0,0,1-9.644,14.3,44.85,44.85,0,0,1-14.3,9.644A44.718,44.718,0,0,1-453,90Zm-5.309-26.6h0l.04.04,25.785-25.786a4.263,4.263,0,0,0,1.257-3.034,4.26,4.26,0,0,0-1.257-3.033,4.26,4.26,0,0,0-3.033-1.257,4.262,4.262,0,0,0-3.034,1.257l-19.759,19.759-9.141-9.141a4.262,4.262,0,0,0-3.034-1.257,4.26,4.26,0,0,0-3.033,1.257,4.262,4.262,0,0,0-1.257,3.034,4.26,4.26,0,0,0,1.257,3.033l15.168,15.169.04-.04Z" transform="translate(498)" fill="url(#linear-gradient)"/>
</svg>
