<svg xmlns="http://www.w3.org/2000/svg" xmlns:xlink="http://www.w3.org/1999/xlink" width="108" height="108" viewBox="0 0 108 108">
  <defs>
    <linearGradient id="linear-gradient" x1="0.836" y1="0.097" x2="0.201" y2="0.866" gradientUnits="objectBoundingBox">
      <stop offset="0" stop-color="#eb4665"/>
      <stop offset="1" stop-color="#e57275"/>
    </linearGradient>
  </defs>
  <path id="Sottrazione_6" data-name="Sottrazione 6" d="M-444,108a53.661,53.661,0,0,1-21.019-4.244,54,54,0,0,1-9.173-4.979,54.386,54.386,0,0,1-7.992-6.594,54.386,54.386,0,0,1-6.594-7.992,54,54,0,0,1-4.979-9.173A53.662,53.662,0,0,1-498,54a53.662,53.662,0,0,1,4.244-21.019,54,54,0,0,1,4.979-9.173,54.388,54.388,0,0,1,6.594-7.992,54.387,54.387,0,0,1,7.992-6.594,54,54,0,0,1,9.173-4.979A53.661,53.661,0,0,1-444,0,53.661,53.661,0,0,1-422.98,4.244a54.008,54.008,0,0,1,9.173,4.979,54.388,54.388,0,0,1,7.992,6.594,54.388,54.388,0,0,1,6.594,7.992,54,54,0,0,1,4.979,9.173A53.662,53.662,0,0,1-390,54a53.662,53.662,0,0,1-4.244,21.019,54,54,0,0,1-4.979,9.173,54.386,54.386,0,0,1-6.594,7.992,54.388,54.388,0,0,1-7.992,6.594,54.008,54.008,0,0,1-9.173,4.979A53.662,53.662,0,0,1-444,108Zm-3.986-36.36h0c.16.016.323.024.484.024a4.806,4.806,0,0,0,3.421-1.417l25.655-25.655a4.8,4.8,0,0,0,1.415-3.42,4.8,4.8,0,0,0-1.415-3.42,4.805,4.805,0,0,0-3.42-1.417,4.806,4.806,0,0,0-3.42,1.417L-447.986,60.47l-10.745-10.746a4.806,4.806,0,0,0-3.42-1.417,4.806,4.806,0,0,0-3.42,1.417,4.806,4.806,0,0,0-1.417,3.42,4.806,4.806,0,0,0,1.417,3.42l13.682,13.683a4.8,4.8,0,0,0,3.419,1.416C-448.31,71.664-448.146,71.656-447.986,71.64Z" transform="translate(498)" fill="url(#linear-gradient)"/>
</svg>
