<svg xmlns="http://www.w3.org/2000/svg" xmlns:xlink="http://www.w3.org/1999/xlink" width="90" height="90" viewBox="0 0 90 90">
  <defs>
    <linearGradient id="linear-gradient" x1="0.836" y1="0.097" x2="0.201" y2="0.866" gradientUnits="objectBoundingBox">
      <stop offset="0" stop-color="#f66d75"/>
      <stop offset="1" stop-color="#fb4569"/>
    </linearGradient>
  </defs>
  <path id="Sottrazione_7" data-name="Sottrazione 7" d="M-453,90a44.719,44.719,0,0,1-17.516-3.536,44.849,44.849,0,0,1-14.3-9.644,44.85,44.85,0,0,1-9.644-14.3A44.719,44.719,0,0,1-498,45a44.719,44.719,0,0,1,3.536-17.516,44.85,44.85,0,0,1,9.644-14.3,44.849,44.849,0,0,1,14.3-9.644A44.719,44.719,0,0,1-453,0a44.718,44.718,0,0,1,17.516,3.536,44.85,44.85,0,0,1,14.3,9.644,44.85,44.85,0,0,1,9.644,14.3A44.717,44.717,0,0,1-408,45a44.717,44.717,0,0,1-3.536,17.516,44.85,44.85,0,0,1-9.644,14.3,44.85,44.85,0,0,1-14.3,9.644A44.718,44.718,0,0,1-453,90Zm0-81a35.775,35.775,0,0,0-14.013,2.829,35.879,35.879,0,0,0-11.443,7.715,35.88,35.88,0,0,0-7.715,11.443A35.775,35.775,0,0,0-489,45a35.775,35.775,0,0,0,2.829,14.013,35.88,35.88,0,0,0,7.715,11.443,35.879,35.879,0,0,0,11.443,7.715A35.775,35.775,0,0,0-453,81a35.774,35.774,0,0,0,14.013-2.829,35.881,35.881,0,0,0,11.443-7.715,35.881,35.881,0,0,0,7.715-11.443A35.774,35.774,0,0,0-417,45a35.774,35.774,0,0,0-2.829-14.013,35.881,35.881,0,0,0-7.715-11.443,35.881,35.881,0,0,0-11.443-7.715A35.774,35.774,0,0,0-453,9Z" transform="translate(498)" fill="url(#linear-gradient)"/>
</svg>
