<svg xmlns="http://www.w3.org/2000/svg" xmlns:xlink="http://www.w3.org/1999/xlink" width="122" height="120" viewBox="0 0 122 120">
  <defs>
    <linearGradient id="linear-gradient" x1="0.836" y1="0.097" x2="0.201" y2="0.866" gradientUnits="objectBoundingBox">
      <stop offset="0" stop-color="#eb4665"/>
      <stop offset="1" stop-color="#e57275"/>
    </linearGradient>
  </defs>
  <g id="Raggruppa_19" data-name="Raggruppa 19" transform="translate(-58 -162)">
    <rect id="Rettangolo_30" data-name="Rettangolo 30" width="122" height="120" transform="translate(58 162)" fill="none"/>
    <path id="Sottrazione_4" data-name="Sottrazione 4" d="M-444,108a53.661,53.661,0,0,1-21.019-4.244,54,54,0,0,1-9.173-4.979,54.386,54.386,0,0,1-7.992-6.594,54.386,54.386,0,0,1-6.594-7.992,54,54,0,0,1-4.979-9.173A53.662,53.662,0,0,1-498,54a53.662,53.662,0,0,1,4.244-21.019,54,54,0,0,1,4.979-9.173,54.388,54.388,0,0,1,6.594-7.992,54.387,54.387,0,0,1,7.992-6.594,54,54,0,0,1,9.173-4.979A53.661,53.661,0,0,1-444,0,53.661,53.661,0,0,1-422.98,4.244a54.008,54.008,0,0,1,9.173,4.979,54.388,54.388,0,0,1,7.992,6.594,54.388,54.388,0,0,1,6.594,7.992,54,54,0,0,1,4.979,9.173A53.662,53.662,0,0,1-390,54a53.662,53.662,0,0,1-4.244,21.019,54,54,0,0,1-4.979,9.173,54.386,54.386,0,0,1-6.594,7.992,54.388,54.388,0,0,1-7.992,6.594,54.008,54.008,0,0,1-9.173,4.979A53.662,53.662,0,0,1-444,108Zm.5-96a42.234,42.234,0,0,0-16.543,3.34,42.358,42.358,0,0,0-13.509,9.108,42.358,42.358,0,0,0-9.108,13.509A42.236,42.236,0,0,0-486,54.5a42.234,42.234,0,0,0,3.34,16.543,42.358,42.358,0,0,0,9.108,13.509,42.358,42.358,0,0,0,13.509,9.108A42.233,42.233,0,0,0-443.5,97a42.233,42.233,0,0,0,16.543-3.34,42.358,42.358,0,0,0,13.509-9.108,42.359,42.359,0,0,0,9.108-13.509A42.234,42.234,0,0,0-401,54.5a42.236,42.236,0,0,0-3.34-16.543,42.358,42.358,0,0,0-9.108-13.509,42.358,42.358,0,0,0-13.509-9.108A42.234,42.234,0,0,0-443.5,12Z" transform="translate(563 167)" fill="url(#linear-gradient)"/>
  </g>
</svg>
